PathFileType	4	(X/Y/Z)	C:/Users/opensim2020/Desktop/walking_exp_matlab/subject06_walking16_straight_02.trc																																																																																																																																																							
DataRate	CameraRate	NumFrames	NumMarkers	Units	OrigDataRate	OrigDataStartFrame	OrigNumFrames																																																																																																																																																			
100	100	4	51	mm	100	2201	283																																																																																																																																																			
Frame#	Time	LFHD			RFHD			LBHD			RBHD			C7			T10			CLAV			STRN			RBAK			LSHO			LUPA			LELB			LFRM			LWRA			LWRB			LFIN			RSHO			RUPA			RELB			RFRM			RWRA			RWRB			RFIN			LASI			RASI			LPSI			RPSI			LTHI			LKNE			LTIB			LANK			LHEE			LTOE			RTHI			RKNE			RTIB			RANK			RHEE			RTOE			*39			*40			*41			*42			*43			*44			*45			*46			*47			*48			*49			*50		
		X1	Y1	Z1	X2	Y2	Z2	X3	Y3	Z3	X4	Y4	Z4	X5	Y5	Z5	X6	Y6	Z6	X7	Y7	Z7	X8	Y8	Z8	X9	Y9	Z9	X10	Y10	Z10	X11	Y11	Z11	X12	Y12	Z12	X13	Y13	Z13	X14	Y14	Z14	X15	Y15	Z15	X16	Y16	Z16	X17	Y17	Z17	X18	Y18	Z18	X19	Y19	Z19	X20	Y20	Z20	X21	Y21	Z21	X22	Y22	Z22	X23	Y23	Z23	X24	Y24	Z24	X25	Y25	Z25	X26	Y26	Z26	X27	Y27	Z27	X28	Y28	Z28	X29	Y29	Z29	X30	Y30	Z30	X31	Y31	Z31	X32	Y32	Z32	X33	Y33	Z33	X34	Y34	Z34	X35	Y35	Z35	X36	Y36	Z36	X37	Y37	Z37	X38	Y38	Z38	X39	Y39	Z39	X40	Y40	Z40	X41	Y41	Z41	X42	Y42	Z42	X43	Y43	Z43	X44	Y44	Z44	X45	Y45	Z45	X46	Y46	Z46	X47	Y47	Z47	X48	Y48	Z48	X49	Y49	Z49	X50	Y50	Z50	X51	Y51	Z51
																																																																																																																																																										
248	2.47	467.32663	1663.04651	-1508.45862	456.69739	1646.91833	-1377.31396	337.00519	1602.70422	-1522.3407	327.69217	1592.02441	-1393.79016	336.97101	1444.97766	-1463.13904	315.42148	1113.76721	-1450.64941	448.05923	1370.14246	-1462.47803	492.76584	1195.69287	-1472.40894	271.9657	1271.34436	-1381.55457	392.28125	1399.66626	-1624.34058	422.80673	1200.41382	-1699.21521	450.35657	1091.79761	-1716.45776	556.77393	987.80206	-1734.22009	677.40961	948.4613	-1689.69409	636.50629	899.61676	-1721.17578	722.08362	869.95221	-1720.72595	407.99298	1399.03137	-1300.36536	366.29138	1199.48755	-1214.66479	370.91602	1077.29907	-1206.05603	375.67532	956.70862	-1189.67395	421.6091	812.97107	-1220.63721	367.58807	818.90063	-1180.6925	397.32574	739.49225	-1179.93762	487.98526	955.71307	-1576.25317	511.51944	967.40021	-1353.8252	334.30676	982.02832	-1530.78687	356.8609	987.32727	-1362.96008	386.1149	644.00623	-1618.45776	357.55051	481.61346	-1593.95972	209.72415	268.85028	-1586.46045	119.63624	120.88924	-1545.25537	73.46894	126.77041	-1503.23145	238.04924	39.47697	-1529.95752	510.21185	638.93085	-1288.89026	541.81909	518.54321	-1317.61194	558.65503	255.53934	-1314.41052	588.58051	71.79257	-1357.76855	553.25677	45.14413	-1403.84265	745.17072	48.45708	-1371.41992	360.48788	1694.18591	-1456.66516	NaN	NaN	NaN	NaN	NaN	NaN	NaN	NaN	NaN	NaN	NaN	NaN	NaN	NaN	NaN	NaN	NaN	NaN	NaN	NaN	NaN	NaN	NaN	NaN	NaN	NaN	NaN	NaN	NaN	NaN	NaN	NaN	NaN
249	2.48	475.01999	1664.21741	-1507.22607	464.59537	1647.9989	-1375.97607	344.56833	1603.97729	-1520.64246	335.59998	1593.25549	-1392.13037	344.58658	1445.82202	-1461.81665	324.4632	1114.67773	-1449.68921	456.14328	1371.38989	-1461.25134	501.38297	1197.09094	-1471.25317	280.42654	1271.98999	-1380.34534	399.83505	1400.93445	-1623.03992	430.06906	1201.50891	-1697.5022	457.40549	1092.8197	-1714.47705	562.685	987.4682	-1732.75476	682.64868	946.38831	-1688.34924	641.07294	898.12329	-1719.95886	726.24963	867.29138	-1719.52185	416.00757	1400.26697	-1299.14514	375.28415	1200.47437	-1213.49792	380.36716	1078.37927	-1204.95618	385.20105	957.81573	-1188.63586	431.10727	813.98132	-1219.69153	377.27277	820.02515	-1179.39197	407.03009	740.50421	-1178.86572	497.36978	956.63409	-1574.94214	520.52509	969.03387	-1352.73059	343.80658	983.35632	-1530.12585	365.94897	989.10815	-1362.3457	395.49823	644.75775	-1617.46851	366.98508	482.31238	-1593.29175	215.61241	272.11151	-1586.1554	123.01253	125.65726	-1545.59631	77.50331	132.44481	-1503.61499	238.70255	39.54327	-1529.8761	517.99762	640.4657	-1287.67639	549.65399	519.86829	-1317.00403	561.99139	256.01404	-1313.36169	589.48352	71.71215	-1357.00146	555.03119	44.51976	-1402.54749	745.94318	47.26267	-1370.55334	368.23929	1695.39551	-1455.00635	NaN	NaN	NaN	NaN	NaN	NaN	NaN	NaN	NaN	NaN	NaN	NaN	NaN	NaN	NaN	NaN	NaN	NaN	NaN	NaN	NaN	NaN	NaN	NaN	NaN	NaN	NaN	NaN	NaN	NaN	NaN	NaN	NaN
250	2.49	482.53125	1665.54395	-1505.89465	472.58109	1649.24561	-1374.65808	352.07916	1605.40698	-1519.10925	343.46756	1594.59033	-1390.48474	352.38837	1446.82593	-1460.41895	333.3288	1115.75647	-1448.86182	464.1825	1372.82983	-1460.02246	510.09036	1198.5957	-1470.11951	288.83173	1272.7373	-1379.21606	407.34698	1402.40955	-1621.85315	437.38431	1202.66724	-1695.74072	464.2944	1093.82874	-1712.40051	568.08337	986.99121	-1731.14697	687.61871	943.98505	-1687.08777	645.2489	896.47998	-1718.8324	729.95325	864.34009	-1718.50916	423.91669	1401.57739	-1297.90625	384.14563	1201.64124	-1212.26404	389.84338	1079.5929	-1203.92834	394.93774	959.07343	-1187.56934	440.55298	815.14075	-1218.83862	387.22345	821.29034	-1178.15503	416.99887	741.7099	-1177.74854	506.81415	957.58087	-1573.47998	529.37909	970.59436	-1351.44153	353.16476	984.76038	-1529.47278	374.836	990.86951	-1361.66614	405.07166	645.48907	-1616.41296	376.9931	482.88437	-1592.55078	222.02917	275.50748	-1585.73889	127.21091	130.45819	-1545.85107	82.17772	138.46306	-1503.81079	239.50302	39.66997	-1529.81641	526.93903	642.2533	-1287.0116	556.55609	520.98505	-1316.16516	565.23938	256.76898	-1312.35657	590.60455	71.82016	-1356.30408	555.02814	45.03667	-1401.91724	746.59277	46.26986	-1370.50769	375.99615	1696.78015	-1453.42493	NaN	NaN	NaN	NaN	NaN	NaN	NaN	NaN	NaN	NaN	NaN	NaN	NaN	NaN	NaN	NaN	NaN	NaN	NaN	NaN	NaN	NaN	NaN	NaN	NaN	NaN	NaN	NaN	NaN	NaN	NaN	NaN	NaN
251	2.5	490.09973	1666.95813	-1504.56812	480.54221	1650.56421	-1373.37671	359.63507	1606.9165	-1517.51392	351.31104	1596.03333	-1388.93457	360.28793	1447.96643	-1459.13977	342.19009	1116.96533	-1447.85364	472.25531	1374.3125	-1458.7959	518.70728	1200.19702	-1468.98706	297.36801	1273.62646	-1378.05774	415.01404	1403.78284	-1620.54419	444.8295	1203.87134	-1693.94885	471.03595	1094.82031	-1710.21814	573.11584	986.40881	-1729.32947	692.27679	941.30792	-1685.88367	649.06024	894.64783	-1717.81067	733.22272	861.05359	-1717.64087	431.83499	1403.0177	-1296.70911	392.83057	1202.86963	-1211.03052	399.31488	1080.94336	-1202.81384	404.63046	960.43573	-1186.43958	450.83902	816.65814	-1217.65881	397.36536	822.62939	-1176.9491	427.02121	743.02545	-1176.59705	515.95068	958.74976	-1571.87097	538.0932	972.09326	-1350.06689	362.27979	986.19568	-1528.64795	383.69479	992.52283	-1360.79614	414.72598	646.23077	-1615.37244	387.72601	483.40887	-1591.8291	229.13881	279.03101	-1585.12012	131.98535	135.52528	-1545.82471	87.60551	144.74753	-1503.62769	240.33696	40.00642	-1529.8457	535.76764	643.83539	-1286.72119	562.30652	521.93658	-1315.15051	568.63269	257.30142	-1311.66296	591.51544	71.78642	-1356.20056	555.43817	44.76275	-1401.53406	746.89478	45.21857	-1371.67041	383.84406	1698.21924	-1451.82764	NaN	NaN	NaN	NaN	NaN	NaN	NaN	NaN	NaN	NaN	NaN	NaN	NaN	NaN	NaN	NaN	NaN	NaN	NaN	NaN	NaN	NaN	NaN	NaN	NaN	NaN	NaN	NaN	NaN	NaN	NaN	NaN	NaN
